<svg version="1.1" id="Layer_1" xmlns="http://www.w3.org/2000/svg" xmlns:xlink="http://www.w3.org/1999/xlink" x="0px" y="0px"
	 viewBox="307 40 1090.5 196" style="enable-background:new 0 0 290.5 46.5;" xml:space="preserve">
 <g>
  <title>Moon Logo</title>
  <rect fill="#fff" id="canvas_background"/>
 </g>
 <g>
  <title>Moon</title>
  <g stroke="null" id="svg_16">
   <path stroke="null" id="svg_1" fill="black" d="m544.15799,143.11818l-2.10487,-1.95875c0.15006,-3.91808 0.15006,-7.98678 -0.15063,-11.90485c-0.45076,-5.7262 -1.65355,-11.45295 -3.30709,-17.02852l1.80417,-3.01373c1.80361,-3.01373 1.95424,-6.63054 0.6014,-9.79501c-5.26189,-11.90473 -13.38012,-22.75466 -23.30251,-31.34412c-2.85633,-2.56178 -6.91543,-3.31527 -10.52379,-1.95904l-2.10487,0.75349c-7.21613,-4.82219 -15.03366,-8.58952 -23.30195,-11.00061l-0.75202,-2.10972c-1.35285,-3.61664 -4.35981,-6.17842 -8.11822,-6.78117c-7.51683,-1.20555 -15.18373,-1.50692 -22.85119,-0.90417c-2.70626,0.30143 -5.71266,0.6028 -8.56898,1.20555c-3.90904,0.75349 -7.06607,3.61664 -8.11822,7.38397l-0.60139,1.35624c-8.41892,2.71247 -16.38696,6.63049 -23.60315,11.75405l-2.25505,-0.75344c-3.60813,-1.20555 -7.51689,-0.30143 -10.37333,2.26035c-8.26857,7.53466 -15.03372,16.57629 -19.99486,26.52198c-1.50342,3.16459 -1.50342,6.78111 0.15029,9.79484l1.65371,3.01429c-2.55569,7.23305 -4.05911,14.76794 -4.5101,22.45288l-2.1047,1.50686c-3.00679,2.10995 -4.81085,5.57613 -4.51015,9.34301l0,0.60308c0,0.60252 0,1.20561 0.15035,1.80813c1.05238,12.65855 4.66044,24.71403 10.82432,35.71453c1.804,3.16436 4.96114,5.27431 8.56921,5.42493l2.85644,0.15063c3.45778,4.82185 7.36654,9.19238 11.72634,13.11045l-0.15034,3.01373c-0.15035,3.61625 1.50336,7.08243 4.51009,9.19238c10.97466,7.68495 23.15188,12.80862 36.38193,15.21983c0.60139,0.15063 1.20222,0.15063 1.80361,0.15063c2.55619,0 5.11183,-0.90434 7.06607,-2.71247l3.15702,-2.8631c3.75842,0.15064 7.51683,0.15064 11.27525,-0.15063c0.75202,0 1.65411,-0.15063 2.55563,-0.30126l3.45828,2.71246c2.55564,1.95876 5.86273,2.71247 9.01974,1.95876c11.12518,-2.8631 21.64896,-7.68551 30.96997,-14.46668c2.7057,-1.95876 4.35981,-5.12368 4.35981,-8.58929l0,-3.76744c4.6605,-4.36996 8.86967,-9.34301 12.47803,-14.76794l4.20918,-0.90434c3.15702,-0.60252 5.86328,-2.71246 7.36676,-5.72619c3.75842,-7.53432 6.31405,-15.67172 7.81752,-23.96032c0.45076,-3.61625 -0.75202,-7.23306 -3.45772,-9.64427z"/>
   <path stroke="null" id="svg_2" fill="#D6B667" d="m510.78246,75.90839l-29.01517,10.54855l-10.52322,-29.38514c-6.61531,-1.05486 -13.38012,-1.35624 -20.29555,-0.75349c-2.55619,0.15069 -5.11183,0.60281 -7.5174,1.05486l-8.86967,29.8372l-30.81917,-10.09644c-7.21619,6.63054 -13.38005,14.61725 -17.73987,23.50814l13.9814,25.46701l-22.24996,15.37102c0,0.75315 0,1.35624 0.15035,2.10938c0.90203,11.30233 4.35981,22.001 9.4713,31.4952l25.55739,1.50687l-1.20273,25.76843c9.4713,6.63054 20.44574,11.30176 32.1723,13.41171l16.38651,-14.76794l17.43923,13.56234c10.07303,-2.56184 19.2434,-6.9318 27.36162,-12.80919l0,-24.71347l25.10612,-5.12368c3.30765,-6.63053 5.56259,-13.71297 6.91601,-21.24785l-21.94966,-19.74042l16.23644,-27.2753c-4.81057,-10.69946 -11.87664,-20.19316 -20.59625,-27.72781z"/>
   <path stroke="null" id="svg_3" fill="#EFD789" d="m458.01346,210.17615c40.68419,0 73.66538,-32.99135 73.66538,-73.68851c0,-40.6974 -32.9812,-73.68902 -73.66538,-73.68902c-40.68447,0 -73.66561,32.99162 -73.66561,73.68902c0,40.69716 32.98113,73.68851 73.66561,73.68851z"/>
   <path stroke="null" id="svg_4" fill="#F4ECBE" d="m517.69846,150.65306c1.50348,-6.17865 1.95424,-12.80919 1.35285,-19.43972c-0.60139,-6.02745 -1.95424,-11.75422 -4.05911,-17.17915c0.15064,-0.30126 0.15064,-0.45189 0.3007,-0.75315c2.10487,-6.9318 -1.80418,-16.87772 -10.22309,-25.61792c-8.86968,-9.19227 -19.54353,-13.41171 -26.45953,-10.5485c-0.6014,0.30137 -1.20222,0.60275 -1.80361,0.90412c-7.66746,-2.41109 -15.78568,-3.4659 -24.2046,-2.71246c-33.8259,3.0139 -58.78195,32.70046 -55.77517,66.60631c1.20267,13.86359 6.9155,26.22089 15.48476,35.71453c-0.15035,2.41064 0.60134,5.42493 3.30743,9.04118c2.70609,3.46618 6.9155,6.78117 11.72623,9.343c5.26189,2.71247 10.52378,4.0687 15.03366,4.0687c1.9548,0 3.60835,-0.30126 5.26189,-0.75315c1.35341,-0.45245 2.40557,-1.05497 3.45772,-1.80869c3.90904,0.45246 7.96816,0.45246 12.02727,0.15063c6.01335,-0.60252 11.72601,-1.95875 17.13853,-4.0687c1.50348,0.30182 2.85633,0.45245 4.50987,0.45245c7.06607,0 15.18429,-3.01373 22.2498,-8.74048c7.51739,-6.17808 12.47803,-14.61731 13.23005,-22.60352c0.6014,-4.52116 -0.45132,-8.74048 -2.55563,-12.05547z"/>
   <path stroke="null" id="svg_5" fill="#C19C59" d="m419.98013,173.70847c3.90859,-1.6575 10.67397,-0.60252 17.43934,2.8631c7.21613,3.61681 12.17733,9.04174 12.6281,13.26107c0.15063,1.05497 0,1.95931 -0.45077,2.71247c-2.10487,4.21933 -11.12518,4.0687 -20.14548,-0.60252c-8.86985,-4.52059 -14.43233,-11.60359 -12.17728,-15.97354c0.60134,-0.90435 1.50337,-1.6575 2.70609,-2.26058z"/>
   <path stroke="null" id="svg_6" fill="#C19C59" d="m511.08428,111.9248c-0.3007,1.05497 -0.75146,1.80869 -1.50348,2.56184c-4.35981,4.21933 -14.73296,0.45246 -23.30195,-8.43866c-8.56955,-8.89095 -12.02727,-19.43944 -7.66746,-23.65883c0.60139,-0.45211 1.20279,-0.90417 1.80418,-1.20555c4.9612,-1.95904 13.9815,1.80829 21.49834,9.64432c7.21613,7.38397 10.67385,16.1244 9.17037,21.09688z"/>
   <path stroke="null" id="svg_7" fill="#C19C59" d="m509.43018,148.8455c1.35285,0.75316 2.55563,1.80813 3.60835,3.01373c6.16342,7.53432 2.25494,20.94602 -8.71961,29.98777c-10.97455,9.04175 -24.95605,10.39798 -31.12004,2.8631c-0.75146,-0.90378 -1.35285,-1.95876 -1.80418,-3.01373c-3.30709,-7.68551 0.90209,-19.1379 10.52379,-26.97405c9.17037,-7.68551 20.44562,-9.7949 27.51169,-5.87683z"/>
   <path stroke="null" id="svg_8" fill="#C19C59" d="m440.72542,92.93827c2.40557,0.45206 4.6605,1.35624 6.91601,2.41109c13.68024,7.23301 18.49137,25.01524 10.67385,39.78317c-7.81752,14.76794 -25.10668,20.7954 -38.78727,13.56234c-1.65371,-0.90434 -3.15708,-1.95931 -4.66044,-3.01429c-10.07263,-8.43866 -12.92901,-23.65849 -6.01352,-36.61831c6.46451,-12.50736 19.69405,-18.68578 31.87138,-16.124z"/>
   <path stroke="null" id="svg_9" fill="#A07F44" d="m421.4822,173.40834c1.50337,3.76744 6.01375,7.98677 12.0271,11.15113c6.01335,3.01373 12.02671,4.21933 15.93575,3.31555c-1.50348,-3.76744 -6.01335,-7.98678 -12.02727,-11.1517c-6.01335,-3.16436 -11.87664,-4.21933 -15.93558,-3.31498z"/>
   <path stroke="null" id="svg_10" fill="#A07F44" d="m476.80723,88.86906c0.45076,4.97287 3.90848,11.45267 9.47106,17.17892c6.31405,6.47991 13.53018,10.24735 18.79208,10.09673c-0.45076,-4.97305 -3.90849,-11.45295 -9.47107,-17.17921c-6.46468,-6.4798 -13.68081,-10.24713 -18.79207,-10.09644z"/>
   <path stroke="null" id="svg_11" fill="#A07F44" d="m481.91792,154.57057c-7.96759,6.63054 -12.17733,15.52166 -11.57594,22.75471c6.76537,1.20561 15.48498,-1.35623 22.70112,-7.38425c7.96759,-6.62998 12.17733,-15.52109 11.57594,-22.75415c-6.76537,-1.20561 -15.33435,1.35623 -22.70112,7.38368z"/>
   <path stroke="null" id="svg_12" fill="#A07F44" d="m458.16578,135.13197c4.96064,-9.34301 4.81057,-20.04225 0.45076,-28.33028c-12.02727,-2.56184 -25.25675,3.76688 -31.72143,15.97298c-4.96092,9.34301 -4.81057,20.04225 -0.45076,28.33028c12.02671,2.56184 25.25675,-3.61625 31.72143,-15.97298z"/>
  </g>
  <text stroke="#000" font-weight="bold" xml:space="preserve" text-anchor="start" font-family="Helvetica, Arial, sans-serif" font-size="250" id="svg_15" y="225.83333" x="613.03018" fill-opacity="null" stroke-opacity="null" stroke-width="0" fill="#000000">MOON</text>
 </g>
</svg>