<svg version="1.0" xmlns="http://www.w3.org/2000/svg" xmlns:xlink="http://www.w3.org/1999/xlink"
	 viewBox="0 120 550 200" style="enable-background:new 0 0 600 450;" xml:space="preserve">
<path d="M110.6,280.5l-29-79.5h26.6l20.1,54.3l20.2-54.7l32.9,0.2l19.7,54.3h1l19.5-54.3h26.9l-28.9,78.8l68.6-80.6
	h33.6l51.6,60.6l25-20.7l-78.1-65.2h39.5l126.1,105h-39.5l-28.1-23.7l-28.3,23.7h-33.6c-5.3-6.2-15.9-18.7-16-18.7h-55.6l13.9-16.4
	h27.9l-21.6-24.9l-73,85.5h-33.4l20.2-23.7H184l-19.1-51.4l-19.1,51.4H110.6z"/>
<path d="M81.6,201l29,79.5h35.1l19.1-51.4l19.1,51.4h35.1l29.2-79.7h-26.9l-19.5,54.3h-1l-19.7-54.3l-32.9-0.2
	l-20.2,54.7L108.1,201H81.6z M198.5,304.2l89.6-105.2h33.6l51.6,60.6l25-20.7l-78.1-65.2h39.5l126.1,105h-39.5l-28.1-23.7
	l-28.3,23.7h-33.6c-5.3-6.2-15.9-18.7-16-18.7c-0.2,0-37.1,0-55.6,0l13.9-16.4h27.9l-21.6-24.9l-73,85.5H198.5z"/>
<path d="M446.5,233.7l-20.1-16.8l19.1-16.1h39.7L446.5,233.7z"/>
</svg>
